<svg id="Layer_3" enable-background="new 0 0 64 64" height="512" viewBox="0 0 64 64" width="512" xmlns="http://www.w3.org/2000/svg"><g><path d="m13 38 6.023 1.643c3.303.901 6.712 1.357 10.136 1.357 8.335 0 16.446-2.703 23.114-7.705l1.727-1.295-.898-.673c-7.206-5.405-15.971-8.327-24.98-8.327-2.742 0-5.476.271-8.165.808l-5.957 1.192" fill="#c1c8d1"/><g fill="#758190"><path d="m49.16 35.4 1.84 4.6h-2.377c-1.068 0-2.121.249-3.076.726l-.979.49c-1.004.502-1.768 1.383-2.123 2.448-.266.798-1.012 1.336-1.853 1.336-.386 0-.763-.114-1.084-.328l-5.88-3.932c5.498-.642 10.797-2.462 15.532-5.34z"/><path d="m46 27.034c-5.555-2.641-11.658-4.034-17.878-4.034-.374 0-.748.005-1.122.015v-.015l6-6 1.422.948c1.047.698 2.183 1.253 3.377 1.651l.29.097c2.554.852 5.299.957 7.911.304z"/><path d="m27 41c-.658 1.315-1 2.766-1 4.236v1.764l-.785-.392c-3.368-1.684-6.192-4.283-8.15-7.499l1.957.534c2.609.712 5.284 1.146 7.981 1.297z"/><path d="m13 38-8.966-4.075-.034.075-1.586 1.586c-.265.265-.414.625-.414 1 0 .781.633 1.414 1.414 1.414z"/></g><path d="m54 32 .263.919c1.087 3.805 3.982 6.829 7.737 8.081l-3-9 3-9c-3.755 1.252-6.65 4.276-7.737 8.081z" fill="#8892a0"/><path d="m2.802 30.519 6.928-4.157c1.485-.891 3.185-1.362 4.917-1.362 2.17 0 4.276.739 5.971 2.094l.543.435c1.162.93 1.839 2.337 1.839 3.826 0 2.164-1.419 4.071-3.492 4.693l-6.508 1.952-10.031-4.56c-.59-.268-.969-.856-.969-1.504 0-.581.305-1.119.802-1.417z" fill="#a8b0bc"/><path d="m38.089 19.696-.29-.097c-1.194-.398-2.329-.953-3.377-1.651l-1.422-.948-6 6v.015c.374-.01.748-.015 1.122-.015 4.342 0 8.624.694 12.706 2.003 1.495-1.217 2.648-2.829 3.322-4.673-2.035.229-4.104.019-6.061-.634z" fill="#8892a0"/><path d="m33.628 40.74 5.88 3.932c.321.214.698.328 1.084.328.841 0 1.588-.538 1.854-1.336.355-1.065 1.119-1.946 2.123-2.448l.979-.49c.487-.244 1-.426 1.528-.548.579-1.254.911-2.644.921-4.113-4.435 2.487-9.315 4.085-14.369 4.675z" fill="#8892a0"/><path d="m19.023 39.643-1.957-.534c1.33 2.185 3.068 4.076 5.097 5.598 1.648-.837 2.913-2.219 3.491-3.879-2.239-.204-4.458-.593-6.631-1.185z" fill="#8892a0"/><path d="m8.82 36.1-4.785-2.175-.035.075-1.586 1.586c-.265.265-.414.625-.414 1 0 .781.633 1.414 1.414 1.414h3.153c.913-.419 1.693-1.077 2.253-1.9z" fill="#8892a0"/><g><path d="m26.706 30.707-1.413-1.416.293-.292c.266-.267.414-.622.414-.999 0-.378-.147-.733-.415-1l-.293-.293 1.415-1.415.293.293c.645.645 1 1.502 1 2.415s-.355 1.77-1 2.415z" fill="#8892a0"/></g><g><path d="m29.706 34.707-1.413-1.416.293-.292c.266-.267.414-.622.414-.999 0-.378-.147-.733-.415-1l-.293-.293 1.415-1.415.293.293c.645.645 1 1.502 1 2.415s-.355 1.77-1 2.415z" fill="#8892a0"/></g><g><path d="m35.707 34.707-1.415-1.415.293-.292c.268-.268.415-.623.415-1 0-.378-.147-.733-.415-1l-.293-.294 1.416-1.413.292.293c.645.645 1 1.501 1 2.414 0 .912-.355 1.769-1 2.415z" fill="#8892a0"/></g><g><path d="m43.707 34.707-1.415-1.415.293-.292c.268-.268.415-.623.415-1 0-.378-.147-.733-.415-1l-.293-.294 1.416-1.413.292.293c.645.645 1 1.501 1 2.414 0 .912-.355 1.769-1 2.415z" fill="#8892a0"/></g><g><path d="m26.706 38.707-1.413-1.416.293-.292c.266-.267.414-.622.414-.999 0-.378-.147-.733-.415-1l-.293-.293 1.415-1.415.293.293c.645.645 1 1.502 1 2.415s-.355 1.77-1 2.415z" fill="#8892a0"/></g><g><path d="m32.707 30.707-1.415-1.415.293-.292c.268-.268.415-.623.415-1 0-.378-.147-.733-.415-1l-.293-.294 1.416-1.413.292.293c.645.645 1 1.501 1 2.414 0 .912-.355 1.769-1 2.415z" fill="#8892a0"/></g><g><path d="m39.707 31.707-1.415-1.415.293-.292c.268-.268.415-.623.415-1 0-.378-.147-.733-.415-1l-.293-.294 1.416-1.413.292.293c.645.645 1 1.501 1 2.414 0 .912-.355 1.769-1 2.415z" fill="#8892a0"/></g><g><path d="m39.707 37.707-1.415-1.415.293-.292c.268-.268.415-.623.415-1 0-.378-.147-.733-.415-1l-.293-.294 1.416-1.413.292.293c.645.645 1 1.501 1 2.414 0 .912-.355 1.769-1 2.415z" fill="#8892a0"/></g><g><path d="m32.707 38.707-1.415-1.415.293-.292c.268-.268.415-.623.415-1 0-.378-.147-.733-.415-1l-.293-.294 1.416-1.413.292.293c.645.645 1 1.501 1 2.414 0 .912-.355 1.769-1 2.415z" fill="#8892a0"/></g><g><path d="m60.054 32 2.895-8.684c.12-.359.026-.756-.242-1.023-.268-.268-.665-.363-1.023-.242-3.917 1.306-6.949 4.396-8.223 8.302-2.033-1.502-4.199-2.813-6.461-3.926v-6.427c0-.308-.142-.599-.385-.788-.243-.19-.56-.258-.858-.182-2.433.608-4.975.511-7.352-.282l-.29-.097c-1.11-.37-2.166-.886-3.138-1.535l-1.422-.948c-.397-.264-.924-.212-1.262.125l-5.746 5.746c-2.277.085-4.553.343-6.786.789l-5.947 1.189-.196.037.003.015c-1.553.152-3.06.628-4.406 1.435l-6.928 4.157c-.794.477-1.287 1.349-1.287 2.274 0 .959.524 1.835 1.348 2.302l-.641.641c-.456.457-.707 1.063-.707 1.708 0 1.331 1.083 2.414 2.414 2.414h9.452l3.576.975c2.047 3.218 4.909 5.818 8.327 7.527l.785.392c.14.071.293.106.446.106.183 0 .365-.05.526-.149.295-.183.474-.504.474-.851v-1.764c0-1.126.242-2.247.679-3.285.493.018.986.049 1.48.049 1.406 0 2.808-.084 4.203-.235l5.591 3.739c.487.324 1.053.496 1.639.496 1.273 0 2.399-.812 2.802-2.02.269-.808.86-1.489 1.622-1.87l.979-.49c.812-.406 1.721-.62 2.629-.62h2.376c.332 0 .642-.165.828-.439s.224-.624.101-.932l-1.531-3.827c.845-.537 1.672-1.105 2.475-1.707l.59-.443c1.275 3.904 4.305 6.991 8.22 8.296.105.035.211.052.317.052.261 0 .517-.103.707-.293.268-.268.361-.664.242-1.023zm-26.927-13.714.74.494c1.12.747 2.336 1.342 3.614 1.768l.29.097c2.336.779 4.811.976 7.228.582v4.274c-4.925-2.118-10.241-3.312-15.612-3.475zm-29.81 13.09 6.928-4.157c2.989-1.792 7.026-1.521 9.749.656l.543.435c.929.744 1.463 1.854 1.463 3.045 0 1.735-1.117 3.236-2.779 3.734l-6.148 1.845-9.69-4.404c-.233-.106-.383-.339-.383-.595 0-.227.122-.442.317-.559zm-.317 5.21c0-.109.044-.216.121-.293l1.159-1.159 4.104 1.866h-4.97c-.228 0-.414-.186-.414-.414zm22 8.65v.13c-2.123-1.167-3.987-2.727-5.516-4.587 2.004.506 4.043.851 6.099 1.038-.379 1.099-.583 2.258-.583 3.419zm24.523-6.236h-.899c-1.217 0-2.435.288-3.523.832l-.979.49c-1.25.625-2.183 1.7-2.625 3.026-.19.57-.938.823-1.433.493l-3.753-2.51c4.328-.803 8.516-2.321 12.35-4.488zm2.15-6.505c-6.453 4.84-14.448 7.505-22.514 7.505-3.334 0-6.656-.445-9.873-1.322l-2.653-.724 3.162-.949c2.516-.754 4.205-3.025 4.205-5.65 0-1.802-.807-3.48-2.214-4.607l-.543-.435c-.657-.526-1.376-.963-2.133-1.316l1.044-.208c2.619-.523 5.3-.789 7.969-.789 8.664 0 17.252 2.84 24.21 8zm3.551.149-.184-.644.184-.645c.796-2.785 2.645-5.111 5.11-6.521l-2.283 6.849c-.068.206-.068.427 0 .633l2.283 6.849c-2.465-1.409-4.314-3.735-5.11-6.521z"/><circle cx="13" cy="29" r="2"/><path d="m26.707 25.293-1.414 1.414.293.293c.263.263.414.628.414 1s-.151.737-.414 1l-.293.293 1.414 1.414.293-.293c.645-.645 1-1.502 1-2.414s-.355-1.77-1-2.414z"/><path d="m28.293 33.293 1.414 1.414.293-.293c.645-.645 1-1.502 1-2.414s-.355-1.77-1-2.414l-.293-.293-1.414 1.414.293.293c.263.263.414.628.414 1s-.151.737-.414 1z"/><path d="m34.293 33.293 1.414 1.414.293-.293c.645-.645 1-1.502 1-2.414s-.355-1.77-1-2.414l-.293-.293-1.414 1.414.293.293c.263.263.414.628.414 1s-.151.737-.414 1z"/><path d="m42.293 33.293 1.414 1.414.293-.293c.645-.645 1-1.502 1-2.414s-.355-1.77-1-2.414l-.293-.293-1.414 1.414.293.293c.263.263.414.628.414 1s-.151.737-.414 1z"/><path d="m26.707 33.293-1.414 1.414.293.293c.263.263.414.628.414 1s-.151.737-.414 1l-.293.293 1.414 1.414.293-.293c.645-.645 1-1.502 1-2.414s-.355-1.77-1-2.414z"/><path d="m31.293 29.293 1.414 1.414.293-.293c.645-.645 1-1.502 1-2.414s-.355-1.77-1-2.414l-.293-.293-1.414 1.414.293.293c.263.263.414.628.414 1s-.151.737-.414 1z"/><path d="m38.293 30.293 1.414 1.414.293-.293c.645-.645 1-1.502 1-2.414s-.355-1.77-1-2.414l-.293-.293-1.414 1.414.293.293c.263.263.414.628.414 1s-.151.737-.414 1z"/><path d="m38.293 36.293 1.414 1.414.293-.293c.645-.645 1-1.502 1-2.414s-.355-1.77-1-2.414l-.293-.293-1.414 1.414.293.293c.263.263.414.628.414 1s-.151.737-.414 1z"/><path d="m31.293 37.293 1.414 1.414.293-.293c.645-.645 1-1.502 1-2.414s-.355-1.77-1-2.414l-.293-.293-1.414 1.414.293.293c.263.263.414.628.414 1s-.151.737-.414 1z"/></g></g></svg>