<svg id="Capa_1" enable-background="new 0 0 512 512" height="512" viewBox="0 0 512 512" width="512" xmlns="http://www.w3.org/2000/svg"><g><g><path d="m241.238 282.493h22.381v229.507h-22.381z" fill="#86ec88"/></g><g><path d="m256 282.493h15.238v229.507h-15.238z" fill="#72ca76"/></g><path d="m217.318 16.171c-4.154 4.208-7.627 18.491-10.24 23.869-5.65-1.956-11.558-12.352-17.471-12.39-14.028-.091-28.084 5.214-38.787 15.917s-16.008 24.759-15.917 38.787c.038 5.913 11.651 11.821 13.434 17.471-4.903 2.612-20.704 6.085-24.912 10.239-9.983 9.855-16.171 23.545-16.171 38.682s6.188 28.827 16.171 38.682c4.208 4.154 18.766 7.627 23.722 10.239-1.802 5.65-12.206 11.558-12.244 17.472-.091 14.028 5.214 28.084 15.917 38.787s24.759 16.008 38.787 15.918c5.913-.038 11.821-11.888 17.471-13.843 2.203 4.534 5.016 19.569 8.335 23.291 9.955 11.168 24.448 18.201 40.587 18.201l9.874-148.746-9.874-148.747c-15.137 0-28.827 6.188-38.682 16.171z" fill="#dc4b4b"/><path d="m404.747 148.746c0-15.137-6.188-28.827-16.171-38.682-4.208-4.154-20.01-7.627-24.912-10.24 1.783-5.65 13.395-11.558 13.433-17.471.091-14.028-5.214-28.084-15.917-38.787s-24.759-16.008-38.787-15.917c-5.913.038-11.821 10.435-17.471 12.39-2.613-5.378-6.085-19.66-10.24-23.869-9.855-9.982-23.546-16.17-38.682-16.17v297.493c15.136 0 28.826-6.188 38.681-16.171 4.154-4.208 7.627-19.944 10.24-25.322 5.65 1.956 11.558 13.805 17.471 13.843 14.028.091 28.084-5.214 38.787-15.918 10.703-10.703 16.008-24.759 15.917-38.787-.038-5.913-10.442-11.821-12.244-17.471 4.957-2.612 19.514-6.085 23.722-10.24 9.985-9.854 16.173-23.544 16.173-38.681z" fill="#b31061"/><g><circle cx="45" cy="60.278" fill="#fdc673" r="34.5"/><circle cx="46.514" cy="294.118" fill="#fdc673" r="34.5"/><circle cx="467" cy="80.216" fill="#fdae02" r="34.5"/><circle cx="441.475" cy="282.719" fill="#fdae02" r="34.5"/><g><path d="m294.164 464.028h-37.926v-28.944c0-42.121 34.146-76.268 76.268-76.268h37.926v28.944c0 42.121-34.146 76.268-76.268 76.268z" fill="#559759"/><path d="m218.313 464.028h37.926v-28.944c0-42.121-34.146-76.268-76.268-76.268h-37.926v28.944c0 42.121 34.146 76.268 76.268 76.268z" fill="#72ca76"/><path d="m213.196 148.746c0 23.64 19.164 42.804 42.804 42.804l9.874-42.804-9.874-42.803c-23.64 0-42.804 19.164-42.804 42.803z" fill="#fdc673"/><path d="m256 105.943v85.608c23.64 0 42.804-19.164 42.804-42.804s-19.164-42.804-42.804-42.804z" fill="#fdae02"/></g></g><g><path d="m189.607 269.835c5.913-.038 11.821-1.027 17.471-2.983 2.613 5.378 6.091 10.255 10.245 14.464l19.46-46.983-27.717-11.48z" fill="#e07037"/><g fill="#dc4b4b"><path d="m388.57 110.07c-4.208-4.154-9.085-7.633-14.463-10.245 1.955-5.65 2.944-11.558 2.982-17.471l-46.982 19.461 11.48 27.717z"/><path d="m374.106 197.668c5.378-2.612 10.255-6.091 14.463-10.245l-46.983-19.461-11.48 27.717 46.982 19.46c-.037-5.913-1.026-11.821-2.982-17.471z"/><path d="m304.921 266.853c5.65 1.956 11.558 2.945 17.471 2.983l-19.461-46.982-27.717 11.48 19.461 46.983c4.155-4.209 7.634-9.086 10.246-14.464z"/><path d="m322.393 27.657c-5.913.038-11.821 1.027-17.471 2.983-2.613-5.378-6.091-10.255-10.245-14.464l-19.461 46.983 27.717 11.48z"/></g><path d="m134.911 215.139 46.983-19.461-11.48-27.717-46.983 19.461c4.208 4.154 9.085 7.633 14.463 10.245-1.956 5.651-2.945 11.559-2.983 17.472z" fill="#e07037"/><path d="m207.079 30.64c-5.65-1.956-11.558-2.945-17.471-2.983l19.46 46.982 27.717-11.48-19.46-46.983c-4.155 4.209-7.634 9.086-10.246 14.464z" fill="#e07037"/><path d="m181.894 101.814-46.983-19.461c.038 5.913 1.027 11.821 2.983 17.472-5.378 2.612-10.255 6.091-14.463 10.245l46.983 19.461z" fill="#e07037"/></g></g></svg>