<svg id="Capa_1" enable-background="new 0 0 512 512" height="512" viewBox="0 0 512 512" width="512" xmlns="http://www.w3.org/2000/svg"><g><g><path clip-rule="evenodd" d="m31.847 118.211c6.836 77.321-29.842 69.263-19.148 130.014 3.744 21.338 15.886 39.101 32.452 50.479 8.964-6.867 20.197-10.953 32.367-10.953 3.943 0 7.773.426 11.46 1.248 8.368-18.415 26.92-31.241 48.479-31.241 3.319 0 6.581.312 9.73.88-1.929-5.505-2.979-11.435-2.979-17.621 0-15.152 6.326-28.829 16.481-38.505-13.446-38.448-40.083-30.9-57.613-96.843l-15.318 2.696-40.593 7.15z" fill="#ffda8f" fill-rule="evenodd"/></g><g><path clip-rule="evenodd" d="m106.254 400.399c2.78 30.389 16.595 61.346 40.224 87.309 4.369 4.767 10.07 9.165 15.999 11.804 3.574 1.589 6.893 2.497 10.155 2.525h.142c4.198-.028 8.283-1.561 12.623-5.164 13.758-11.435 29.672-11.435 43.458 0 4.312 3.604 8.397 5.136 12.595 5.164h.142c3.262-.028 6.61-.936 10.184-2.525 5.929-2.639 11.63-7.037 15.971-11.804 3.574-3.916 6.922-7.945 10.014-12.088-9.361-8.91-15.205-21.536-15.205-35.497 0-26.02 20.282-47.329 45.898-48.918.426-25.225-6.922-49.628-22.835-69.972-14.978-19.153-34.75-20.26-56.592-8.371-6.042 3.292-12.396 6.526-21.899 6.526-9.531 0-15.886-3.235-21.928-6.526-19.204-10.47-36.82-10.868-51.004 2.27 9.985 8.966 16.283 21.991 16.283 36.49-.001 25.424-19.404 46.365-44.225 48.777z" fill="#ff7d95" fill-rule="evenodd"/></g><g><path clip-rule="evenodd" d="m219.127 33.569c-13.333 33.284-11.744 72.157 7.744 105.526 16.396 3.944 40.849-3.604 62.322-16.174 21.417-12.513 39.884-30.049 44.479-46.223-19.431-33.34-52.451-53.827-87.966-58.594-13.814-1.844-21.388 2.526-26.579 15.465z" fill="#e7e9ef" fill-rule="evenodd"/></g><g><path clip-rule="evenodd" d="m376.28 322.226c-8.624 24.402-19.602 50.082-14.893 72.327 4.993 23.409 25.417 30.106 38.948 5.703 13.02-23.409 19.063-33.596 28.254-38.306 8.595-5.703 20.453-5.959 47.231-5.788 27.913.17 32.083-20.941 14.155-36.745-17.077-15.039-44.848-18.103-70.322-22.558-11.517-2.015-19.914-1.078-27.232 3.178-7.319 4.284-12.255 11.151-16.141 22.189z" fill="#e7e9ef" fill-rule="evenodd"/></g><g><path clip-rule="evenodd" d="m34.599 63.703 12.567 51.812 40.593-7.15-5.844-52.976c10.496-3.831 17.19-14.046 15.063-26.105-2.128-12.088-16.651-20.912-27.176-19.04-10.524 1.844-14.751 7.065-17.701 14.301-5.22-5.788-11.006-9.279-21.502-7.406-10.524 1.844-21.19 15.095-19.063 27.155 2.128 12.088 11.886 19.409 23.063 19.409z" fill="#fff" fill-rule="evenodd"/></g><g><path d="m273.246 70.503c-3.939 3.871-3.993 10.204-.121 14.143 1.958 1.991 4.544 2.99 7.132 2.99 2.531 0 5.063-.955 7.01-2.869l.029-.028c3.939-3.871 3.979-10.189.106-14.128-3.87-3.94-10.216-3.979-14.156-.108z"/><path d="m496.585 311.911c-17.272-15.21-42.292-19.387-66.489-23.425-2.924-.488-5.836-.975-8.719-1.479-9.506-1.662-17.57-1.529-24.704.463l-11.227-19.262 10.632-6.213c4.769-2.787 6.375-8.912 3.588-13.681-2.788-4.769-8.912-6.375-13.681-3.588l-10.611 6.201-10.572-18.139 33.457-19.539c4.769-2.785 6.378-8.91 3.593-13.68-2.786-4.769-8.91-6.378-13.68-3.593l-33.442 19.53-10.573-18.141 56.286-32.864c4.77-2.785 6.379-8.909 3.594-13.679-2.784-4.77-8.911-6.38-13.679-3.594l-56.272 32.856-10.567-18.13 33.408-19.499c4.77-2.784 6.38-8.908 3.596-13.679-2.785-4.77-8.91-6.379-13.679-3.596l-33.397 19.492-10.687-18.337c19.767-13.255 35.828-30.376 40.533-46.897.745-2.617.392-5.424-.978-7.775-20.365-34.943-55.092-58.077-95.283-63.472-18.457-2.459-30.27 4.416-37.187 21.658-15.088 37.666-12.029 79.323 8.392 114.288 1.373 2.351 3.645 4.04 6.291 4.679 3.688.889 7.673 1.31 11.875 1.31 14.882 0 32.468-5.28 49.094-13.691l10.677 18.319-33.579 19.599c-4.77 2.784-6.38 8.909-3.596 13.679 1.859 3.185 5.207 4.961 8.647 4.961 1.712 0 3.447-.44 5.032-1.365l33.568-19.592 10.568 18.133-56.404 32.933c-4.77 2.785-6.379 8.909-3.594 13.679 1.859 3.185 5.207 4.96 8.646 4.96 1.713 0 3.448-.44 5.033-1.366l56.391-32.925 10.574 18.143-33.536 19.585c-4.769 2.785-6.378 8.91-3.593 13.68 1.86 3.184 5.207 4.959 8.645 4.959 1.713 0 3.449-.44 5.034-1.366l33.521-19.576 10.575 18.145-10.671 6.237c-4.768 2.787-6.375 8.912-3.588 13.681 1.86 3.182 5.206 4.957 8.644 4.957 1.714 0 3.451-.441 5.037-1.368l10.651-6.225 11.219 19.25c-5.254 5.243-9.333 12.219-12.546 21.343-.99 2.802-2.011 5.621-3.036 8.449-8.341 23.018-16.965 46.82-12.208 69.297 3.389 15.891 13.115 26.9 25.382 28.73.933.139 2.098.249 3.445.249 7.01 0 18.934-2.993 28.643-20.501 12.382-22.261 17.665-30.981 24.075-34.267.333-.171.656-.36.968-.567 5.954-3.95 16.702-4.279 41.64-4.12 23.896.18 31.317-12.574 33.405-18.05 4.419-11.594-.4-25.465-12.581-36.204zm-212.355-197.668c-.024.014-.049.024-.073.038-.043.025-.081.055-.124.081-18.686 10.917-37.964 16.788-50.774 15.655-15.242-28.736-17.051-62.269-4.852-92.723 3.492-8.705 6.628-10.523 15.968-9.276 32.489 4.361 60.761 22.412 78.252 49.78-5.295 11.672-19.801 25.542-38.397 36.445zm206.245 226.743c-1.217 3.191-6.94 5.221-14.592 5.175-28.166-.176-41.294.045-52.353 7.149-11.608 6.167-18.251 17.484-31.941 42.096-3.708 6.688-8.285 10.681-11.65 10.181-2.971-.443-6.983-4.738-8.767-13.105-3.572-16.876 4.063-37.947 11.448-58.326 1.043-2.878 2.082-5.748 3.094-8.609 3.103-8.814 6.616-13.861 11.743-16.869h.001c.002-.001.004-.002.005-.003.002-.001.004-.002.006-.004 5.143-2.983 11.264-3.571 20.462-1.96 2.934.513 5.898 1.008 8.872 1.504 21.426 3.577 43.581 7.275 56.559 18.704 6.416 5.656 8.184 11.257 7.113 14.067z"/><path d="m137.458 267.76c2.627 0 5.304.242 7.956.721 3.501.629 7.075-.647 9.384-3.354 2.309-2.708 3.005-6.438 1.828-9.796-1.603-4.576-2.416-9.391-2.416-14.314 0-11.941 4.751-23.043 13.379-31.264 2.845-2.71 3.839-6.835 2.542-10.542-6.36-18.185-15.559-27.516-24.455-36.54-11.508-11.674-23.409-23.744-32.933-59.571-1.334-5.017-6.285-8.18-11.399-7.28l-4.813.847-3.92-35.536c10.902-7.211 16.602-20.069 14.218-33.58-1.43-8.123-6.42-15.535-14.052-20.871-7.624-5.331-16.865-7.678-24.7-6.286-8.91 1.562-14.674 5.164-18.6 9.423-5.12-2.625-11.797-4.098-20.603-2.528-7.878 1.38-15.776 6.762-21.128 14.397-5.334 7.61-7.485 16.256-6.059 24.342 2.383 13.535 12.124 23.68 24.817 26.727l8.43 34.757-4.82.849c-5.113.9-8.687 5.563-8.228 10.734.923 10.385 1.068 19.435.443 27.671-.418 5.507 3.708 10.311 9.216 10.729 5.512.418 10.312-3.708 10.729-9.217.514-6.773.575-13.959.181-21.78l53.483-9.416c10.53 34.309 23.737 47.706 35.494 59.632 7.161 7.263 13.031 13.218 17.634 23.566-9.626 11.36-14.857 25.59-14.857 40.738 0 2.285.121 4.556.361 6.807-21.018.965-40.178 12.411-51.071 30.207-1.98-.188-3.977-.281-5.98-.281-11.427 0-22.363 2.982-32.029 8.682-14.26-11.873-22.23-28.226-24.31-49.781-.53-5.498-5.42-9.523-10.915-8.994-5.498.531-9.525 5.417-8.994 10.916 2.888 29.929 15.747 52.933 38.218 68.373 1.71 1.174 3.688 1.758 5.663 1.758 2.148 0 4.292-.69 6.082-2.062 7.593-5.816 16.682-8.89 26.285-8.89 3.159 0 6.283.339 9.284 1.009 4.619 1.028 9.325-1.317 11.281-5.625 7.005-15.417 22.46-25.377 39.374-25.377zm-58.972-221.765c-4.328 1.579-7.016 5.912-6.511 10.491l4.815 43.656-22.117 3.894-10.355-42.691c-1.088-4.485-5.104-7.643-9.719-7.643-6.836 0-12.022-4.373-13.214-11.145-.484-2.742.54-6.253 2.739-9.39 2.616-3.733 6.004-5.793 8.231-6.182 1.375-.245 2.567-.367 3.629-.367 3.799 0 5.926 1.561 8.689 4.624 2.304 2.557 5.763 3.747 9.152 3.155 3.39-.594 6.237-2.889 7.536-6.076 1.996-4.894 3.849-7.119 10.192-8.23 2.183-.391 6.045.383 9.759 2.98 3.154 2.205 5.327 5.176 5.816 7.951 1.191 6.745-2.201 12.622-8.642 14.973z"/><path d="m224.242 304.08c-2.459 1.339-4.711 2.493-7.02 3.392.446-17.536 3.064-26.756 18.464-37.742 4.497-3.207 5.541-9.453 2.333-13.95s-9.454-5.542-13.95-2.333c-22.86 16.309-26.323 32.89-26.848 54.107-2.387-.909-4.701-2.093-7.235-3.473-30.477-16.617-50.857-7.152-62.587 3.714-2.063 1.91-3.226 4.602-3.204 7.414.021 2.812 1.226 5.485 3.318 7.364 8.239 7.398 12.964 17.986 12.964 29.049 0 20.183-15.128 36.874-35.19 38.823-5.476.532-9.493 5.386-8.992 10.865 3.024 33.063 18.22 66.137 42.811 93.154 5.58 6.089 12.436 11.127 19.306 14.185 5.019 2.233 9.783 3.352 14.338 3.351 6.77 0 13.074-2.474 19.041-7.436 10.022-8.331 20.632-8.329 30.67-.002 9.983 8.302 20.902 9.639 33.382 4.086 6.9-3.071 13.753-8.117 19.29-14.198 3.828-4.194 7.408-8.516 10.641-12.847 3.029-4.057 2.548-9.737-1.119-13.227-7.802-7.426-12.099-17.461-12.099-28.254 0-20.563 16.04-37.666 36.516-38.936 5.208-.322 9.292-4.595 9.38-9.812.48-28.43-8.15-54.816-24.956-76.302-17.221-22.023-41.816-25.927-69.254-10.992zm28.314 136.043c0 12.99 4.352 25.649 12.154 35.873-1.401 1.671-2.856 3.333-4.357 4.978-3.67 4.032-8.278 7.458-12.641 9.399-5.639 2.51-8.318 2.254-12.47-1.199-17.623-14.616-38.645-14.613-56.238.009-4.141 3.445-6.819 3.7-12.459 1.191-4.354-1.938-8.98-5.373-12.67-9.399-19.4-21.314-32.154-46.759-36.492-72.501 25.167-6.953 43.096-29.834 43.096-56.853 0-12.527-4.004-24.649-11.244-34.646 6.419-2.613 16.423-3.377 31.18 4.668 5.662 3.084 14.217 7.745 26.712 7.745 12.466 0 21.021-4.661 26.68-7.743 24.796-13.494 36.949-3.183 43.934 5.749 12.289 15.711 19.31 34.658 20.536 55.213-26.289 6.052-45.721 29.69-45.721 57.516z"/><path d="m18.182 205.228c2.567 0 5.137-.98 7.093-2.936 3.905-3.906 3.905-10.238 0-14.144-3.906-3.905-10.238-3.905-14.144 0l-.028.028c-3.905 3.906-3.891 10.224.014 14.129 1.95 1.951 4.506 2.923 7.065 2.923z"/></g></g></svg>